<svg width="659" height="395" viewBox="0 0 659 395" fill="none" xmlns="http://www.w3.org/2000/svg">
<rect width="659" height="395" rx="12.2948" fill="white" fill-opacity="0.53"/>
<g clip-path="url(#clip0)">
<path d="M361.269 181.575C368.924 181.575 375.128 175.365 375.128 167.704C375.128 160.043 368.924 153.833 361.269 153.833C353.615 153.833 347.41 160.043 347.41 167.704C347.41 175.365 353.615 181.575 361.269 181.575Z" fill="#2F2E41"/>
<path d="M365.13 154.215C367.529 154.215 369.886 154.838 371.972 156.023C374.058 157.209 375.801 158.915 377.03 160.977C378.26 163.038 378.934 165.383 378.986 167.783C379.039 170.183 378.469 172.556 377.331 174.669C378.532 173.164 379.408 171.426 379.901 169.564C380.394 167.702 380.494 165.758 380.195 163.855C379.896 161.952 379.204 160.133 378.163 158.512C377.122 156.892 375.756 155.506 374.151 154.444C372.545 153.381 370.737 152.665 368.84 152.341C366.943 152.017 364.999 152.091 363.132 152.561C361.266 153.03 359.517 153.883 357.998 155.066C356.479 156.249 355.223 157.735 354.31 159.431C355.606 157.803 357.252 156.489 359.125 155.585C360.998 154.682 363.051 154.214 365.13 154.215V154.215Z" fill="#2F2E41"/>
<path d="M335.371 167.675C357.856 167.675 376.083 149.432 376.083 126.928C376.083 104.425 357.856 86.182 335.371 86.182C312.887 86.182 294.66 104.425 294.66 126.928C294.66 149.432 312.887 167.675 335.371 167.675Z" fill="#2F2E41"/>
<path d="M303.42 101.647C310.434 93.7512 320.24 88.8919 330.767 88.0948C341.294 87.2977 351.718 90.6251 359.84 97.3749C359.507 97.0582 359.178 96.7389 358.832 96.4311C350.762 89.2541 340.174 85.579 329.397 86.2142C318.62 86.8494 308.536 91.7427 301.364 99.818C294.191 107.893 290.517 118.489 291.149 129.276C291.781 140.062 296.668 150.156 304.735 157.336C305.08 157.644 305.436 157.934 305.789 158.228C298.14 150.946 293.617 140.974 293.175 130.417C292.733 119.86 296.406 109.545 303.42 101.647V101.647Z" fill="#2F2E41"/>
<path d="M335.026 167.329C349.508 167.329 361.247 155.58 361.247 141.086C361.247 126.592 349.508 114.843 335.026 114.843C320.545 114.843 308.805 126.592 308.805 141.086C308.805 155.58 320.545 167.329 335.026 167.329Z" fill="#FFB8B8"/>
<path d="M316.396 149.373C316.396 149.373 319.846 181.141 314.326 184.595C308.805 188.048 346.067 192.882 346.067 192.882C346.067 192.882 340.547 158.351 354.347 149.373H316.396Z" fill="#FFB8B8"/>
<path d="M349.517 179.07C349.517 179.07 359.792 174.268 344.994 175.978C330.196 177.688 317.429 171.128 317.429 171.128C317.429 171.128 312.946 166.639 312.256 171.473C311.566 176.307 314.326 185.285 299.145 186.666C283.965 188.048 270.164 183.904 264.644 194.263C259.124 204.622 261.884 249.512 261.884 249.512C261.884 249.512 272.234 286.806 280.514 292.33C288.795 297.855 361.247 290.259 361.247 290.259L381.948 252.965V209.457C381.948 209.457 379.188 194.263 359.867 198.407C359.867 198.407 347.447 195.644 348.137 189.429C348.827 183.213 349.517 179.07 349.517 179.07Z" fill="#D0CDE1"/>
<path d="M283.253 318.722C283.679 316.862 283.965 315.81 283.965 315.81L283.744 314.297L281.471 298.847L280.515 292.33C288.793 288.877 290.865 272.992 290.865 272.992L291.177 272.805L292.59 271.959V271.955L297.662 268.91L297.765 268.849L299.814 270.213L303.976 272.992C318.537 283.709 333.365 283.518 342.516 281.83C348.109 280.797 351.586 279.208 351.586 279.208L361.624 275.858L361.936 275.755L362.244 275.801L368.131 276.692L368.238 276.712L368.725 276.784L367.362 286.217L365.386 299.925C370.607 302.692 375.248 307.891 379.308 314.297C380.206 315.715 381.077 317.19 381.92 318.722C383.017 320.704 384.064 322.766 385.061 324.877C385.183 325.129 385.301 325.384 385.419 325.639C385.804 326.466 386.185 327.301 386.554 328.14H281.425C281.562 327.297 281.699 326.493 281.833 325.719C281.839 325.693 281.845 325.666 281.848 325.639C281.897 325.38 281.943 325.129 281.985 324.877C282.449 322.362 282.899 320.262 283.253 318.722Z" fill="#2F2E41"/>
<path d="M279.134 185.976C279.134 185.976 286.725 199.788 283.965 217.053C281.204 234.319 292.245 277.137 292.245 277.137L300.525 275.065C300.525 275.065 295.005 239.153 296.385 230.866C297.765 222.578 297.765 190.119 290.865 185.976C283.965 181.832 279.134 185.976 279.134 185.976Z" fill="#2F2E41"/>
<path d="M359.382 200.33L362.282 276.792L367.803 280.245C367.803 280.245 375.738 196.335 371.598 196.335H363.174C362.659 196.335 362.149 196.44 361.676 196.643C361.203 196.846 360.776 197.144 360.421 197.518C360.066 197.891 359.791 198.333 359.613 198.817C359.434 199.3 359.356 199.815 359.382 200.33V200.33Z" fill="#2F2E41"/>
<path d="M296.04 275.41C297.945 275.41 299.49 273.864 299.49 271.957C299.49 270.05 297.945 268.504 296.04 268.504C294.135 268.504 292.59 270.05 292.59 271.957C292.59 273.864 294.135 275.41 296.04 275.41Z" fill="#6C63FF"/>
<path d="M365.042 278.863C366.948 278.863 368.493 277.317 368.493 275.41C368.493 273.503 366.948 271.957 365.042 271.957C363.137 271.957 361.592 273.503 361.592 275.41C361.592 277.317 363.137 278.863 365.042 278.863Z" fill="#6C63FF"/>
<path d="M312.6 108.281V134.525H318.673L326.401 126.237L325.366 134.525H352.208L350.552 126.237L353.864 134.525H358.142V108.281H312.6Z" fill="#2F2E41"/>
<path d="M308.46 139.359C309.604 139.359 310.53 137.659 310.53 135.561C310.53 133.463 309.604 131.763 308.46 131.763C307.317 131.763 306.39 133.463 306.39 135.561C306.39 137.659 307.317 139.359 308.46 139.359Z" fill="#FFB8B8"/>
<path d="M361.592 139.359C362.736 139.359 363.662 137.659 363.662 135.561C363.662 133.463 362.736 131.763 361.592 131.763C360.449 131.763 359.522 133.463 359.522 135.561C359.522 137.659 360.449 139.359 361.592 139.359Z" fill="#FFB8B8"/>
<path d="M375.738 275.065C375.738 275.065 344.342 269.195 342.272 279.554C340.201 289.913 377.118 285.424 377.118 285.424L375.738 275.065Z" fill="#FFB8B8"/>
<path d="M375.048 203.932C375.048 203.932 450.26 264.015 436.46 278.518C422.659 293.021 370.218 288.877 370.218 288.877L373.668 271.612L404.029 268.159L388.848 252.965L375.048 254.347V203.932Z" fill="#D0CDE1"/>
<path d="M263.954 304.071L273.614 311.668C273.614 311.668 280.514 333.077 290.865 326.861C301.215 320.646 281.204 298.546 281.204 298.546L269.474 294.402L263.954 304.071Z" fill="#FFB8B8"/>
<path d="M273.614 192.882L263.98 195.784C263.98 195.784 197.022 245.369 194.261 259.181C191.501 272.993 207.372 280.59 207.372 280.59L267.404 308.905L273.614 292.33L245.323 277.827C245.323 277.827 247.393 273.684 239.113 272.993C230.833 272.303 229.453 263.325 229.453 263.325C229.453 263.325 246.013 237.772 254.984 243.297C263.954 248.822 266.714 252.965 266.714 252.965L273.614 192.882Z" fill="#D0CDE1"/>
<path d="M411.028 321.089V323.402C411.029 324.037 410.911 324.667 410.681 325.258C410.579 325.522 410.455 325.777 410.312 326.02C409.858 326.783 409.214 327.414 408.443 327.852C407.672 328.291 406.8 328.521 405.914 328.521H235.871C234.984 328.521 234.113 328.291 233.342 327.852C232.571 327.414 231.927 326.783 231.473 326.02C231.329 325.777 231.206 325.522 231.103 325.258C230.873 324.667 230.756 324.037 230.757 323.402V321.089C230.757 320.417 230.889 319.751 231.146 319.13C231.403 318.509 231.779 317.944 232.254 317.469C232.729 316.994 233.293 316.617 233.914 316.36C234.534 316.102 235.199 315.97 235.871 315.97H245.672V314.892C245.672 314.864 245.678 314.836 245.689 314.81C245.699 314.784 245.715 314.761 245.735 314.741C245.755 314.721 245.778 314.705 245.804 314.695C245.83 314.684 245.858 314.678 245.886 314.678H251C251.028 314.678 251.056 314.684 251.081 314.695C251.107 314.705 251.131 314.721 251.151 314.741C251.17 314.761 251.186 314.784 251.197 314.81C251.208 314.836 251.213 314.864 251.213 314.892V315.97H254.408V314.892C254.408 314.864 254.413 314.836 254.424 314.81C254.435 314.784 254.45 314.761 254.47 314.741C254.49 314.721 254.514 314.705 254.539 314.695C254.565 314.684 254.593 314.678 254.621 314.678H259.735C259.763 314.678 259.791 314.684 259.817 314.695C259.843 314.705 259.866 314.721 259.886 314.741C259.906 314.761 259.922 314.784 259.932 314.81C259.943 314.836 259.948 314.864 259.948 314.892V315.97H263.147V314.892C263.147 314.864 263.152 314.836 263.163 314.81C263.174 314.784 263.19 314.761 263.209 314.741C263.229 314.721 263.253 314.705 263.279 314.695C263.305 314.684 263.332 314.678 263.36 314.678H268.474C268.502 314.678 268.53 314.684 268.556 314.695C268.582 314.705 268.605 314.721 268.625 314.741C268.645 314.761 268.661 314.784 268.671 314.81C268.682 314.836 268.688 314.864 268.688 314.892V315.97H271.882V314.892C271.882 314.864 271.888 314.836 271.899 314.81C271.909 314.784 271.925 314.761 271.945 314.741C271.965 314.721 271.988 314.705 272.014 314.695C272.04 314.684 272.068 314.678 272.096 314.678H277.21C277.238 314.678 277.265 314.684 277.291 314.695C277.317 314.705 277.341 314.721 277.361 314.741C277.38 314.761 277.396 314.784 277.407 314.81C277.417 314.836 277.423 314.864 277.423 314.892V315.97H280.618V314.892C280.618 314.864 280.623 314.836 280.634 314.81C280.645 314.784 280.66 314.761 280.68 314.741C280.7 314.721 280.723 314.705 280.749 314.695C280.775 314.684 280.803 314.678 280.831 314.678H285.945C285.973 314.678 286.001 314.684 286.027 314.695C286.053 314.705 286.076 314.721 286.096 314.741C286.116 314.761 286.131 314.784 286.142 314.81C286.153 314.836 286.158 314.864 286.158 314.892V315.97H289.357V314.892C289.357 314.864 289.362 314.836 289.373 314.81C289.384 314.784 289.399 314.761 289.419 314.741C289.439 314.721 289.463 314.705 289.489 314.695C289.514 314.684 289.542 314.678 289.57 314.678H294.684C294.712 314.678 294.74 314.684 294.766 314.695C294.792 314.705 294.815 314.721 294.835 314.741C294.855 314.761 294.871 314.784 294.881 314.81C294.892 314.836 294.898 314.864 294.897 314.892V315.97H298.092V314.892C298.092 314.864 298.098 314.836 298.108 314.81C298.119 314.784 298.135 314.761 298.155 314.741C298.174 314.721 298.198 314.705 298.224 314.695C298.25 314.684 298.278 314.678 298.306 314.678H338.365C338.393 314.678 338.421 314.684 338.447 314.695C338.472 314.705 338.496 314.721 338.516 314.741C338.536 314.761 338.551 314.784 338.562 314.81C338.573 314.836 338.578 314.864 338.578 314.892V315.97H341.777V314.892C341.777 314.864 341.782 314.836 341.793 314.81C341.804 314.784 341.819 314.761 341.839 314.741C341.859 314.721 341.882 314.705 341.908 314.695C341.934 314.684 341.962 314.678 341.99 314.678H347.104C347.16 314.679 347.214 314.702 347.254 314.742C347.294 314.781 347.317 314.835 347.317 314.892V315.97H350.512V314.892C350.512 314.864 350.518 314.836 350.528 314.81C350.539 314.784 350.555 314.761 350.574 314.741C350.594 314.721 350.618 314.705 350.644 314.695C350.67 314.684 350.697 314.678 350.725 314.678H355.839C355.867 314.678 355.895 314.684 355.921 314.695C355.947 314.705 355.97 314.721 355.99 314.741C356.01 314.761 356.026 314.784 356.036 314.81C356.047 314.836 356.053 314.864 356.053 314.892V315.97H359.247V314.892C359.247 314.864 359.253 314.836 359.264 314.81C359.274 314.784 359.29 314.761 359.31 314.741C359.33 314.721 359.353 314.705 359.379 314.695C359.405 314.684 359.433 314.678 359.461 314.678H364.575C364.603 314.678 364.631 314.684 364.656 314.695C364.682 314.705 364.706 314.721 364.726 314.741C364.745 314.761 364.761 314.784 364.772 314.81C364.783 314.836 364.788 314.864 364.788 314.892V315.97H367.987V314.892C367.987 314.864 367.992 314.836 368.003 314.81C368.013 314.784 368.029 314.761 368.049 314.741C368.069 314.721 368.092 314.705 368.118 314.695C368.144 314.684 368.172 314.678 368.2 314.678H373.314C373.37 314.679 373.423 314.702 373.463 314.742C373.502 314.782 373.524 314.836 373.523 314.892V315.97H376.722V314.892C376.722 314.864 376.727 314.836 376.738 314.81C376.749 314.784 376.765 314.761 376.784 314.741C376.804 314.721 376.828 314.705 376.854 314.695C376.879 314.684 376.907 314.678 376.935 314.678H382.049C382.077 314.678 382.105 314.684 382.131 314.695C382.157 314.705 382.18 314.721 382.2 314.741C382.22 314.761 382.236 314.784 382.246 314.81C382.257 314.836 382.263 314.864 382.263 314.892V315.97H385.457V314.892C385.457 314.864 385.463 314.836 385.474 314.81C385.484 314.784 385.5 314.761 385.52 314.741C385.54 314.721 385.563 314.705 385.589 314.695C385.615 314.684 385.643 314.678 385.671 314.678H390.785C390.813 314.678 390.84 314.684 390.866 314.695C390.892 314.705 390.916 314.721 390.936 314.741C390.955 314.761 390.971 314.784 390.982 314.81C390.992 314.836 390.998 314.864 390.998 314.892V315.97H405.914C406.585 315.97 407.25 316.102 407.871 316.36C408.491 316.617 409.055 316.994 409.53 317.469C410.005 317.944 410.382 318.509 410.639 319.13C410.896 319.751 411.028 320.417 411.028 321.089V321.089Z" fill="#3F3D56"/>
<path d="M460.473 325.256H181.352V326.019H460.473V325.256Z" fill="#3F3D56"/>
<path d="M397.335 223.662H333.955V222.355H305.216V223.662H241.575C240.438 223.662 239.347 224.114 238.543 224.919C237.739 225.724 237.288 226.815 237.288 227.953V314.814C237.288 315.952 237.739 317.043 238.543 317.848C239.347 318.653 240.438 319.105 241.575 319.105H397.335C398.472 319.105 399.563 318.653 400.367 317.848C401.171 317.043 401.622 315.952 401.622 314.814V227.953C401.622 227.389 401.511 226.832 401.296 226.311C401.081 225.79 400.765 225.317 400.367 224.919C399.969 224.52 399.496 224.204 398.976 223.989C398.456 223.773 397.898 223.662 397.335 223.662V223.662Z" fill="#3F3D56"/>
<path d="M319.58 263.515C324.837 263.515 329.099 259.25 329.099 253.988C329.099 248.725 324.837 244.46 319.58 244.46C314.322 244.46 310.06 248.725 310.06 253.988C310.06 259.25 314.322 263.515 319.58 263.515Z" stroke="#D0CDE1" stroke-width="0.761584" stroke-miterlimit="10"/>
<path d="M316.533 266.945C321.791 266.945 326.053 262.68 326.053 257.418C326.053 252.155 321.791 247.89 316.533 247.89C311.276 247.89 307.014 252.155 307.014 257.418C307.014 262.68 311.276 266.945 316.533 266.945Z" fill="#D0CDE1"/>
<path d="M201.752 339.028H129.782V339.89H201.752V339.028Z" fill="#3F3D56"/>
<path d="M515.905 339.028H443.936V339.89H515.905V339.028Z" fill="#3F3D56"/>
<path d="M171.715 311.27C164.133 323.659 166.741 339.069 166.741 339.069C166.741 339.069 181.643 334.393 189.225 322.004C196.807 309.616 194.198 294.205 194.198 294.205C194.198 294.205 179.297 298.881 171.715 311.27Z" fill="#3F3D56"/>
<path d="M166.432 339.171L166.001 339.103C165.845 339.078 150.328 336.505 141.035 325.377C131.742 314.249 131.966 298.508 131.969 298.351L131.978 297.914L132.409 297.982C132.565 298.007 148.082 300.58 157.375 311.709C166.668 322.837 166.444 338.577 166.441 338.735L166.432 339.171Z" fill="#6C63FF"/>
<path d="M167.044 339.563L166.628 339.432C166.477 339.385 151.502 334.571 143.933 322.204C136.364 309.836 138.883 294.297 138.909 294.142L138.982 293.711L139.398 293.842C139.549 293.889 154.524 298.703 162.093 311.071C169.662 323.438 167.143 338.977 167.117 339.132L167.044 339.563ZM139.596 294.714C139.252 297.322 137.878 310.849 144.583 321.805C151.288 332.761 163.952 337.682 166.43 338.56C166.775 335.952 168.149 322.425 161.443 311.469C154.738 300.513 142.074 295.592 139.596 294.714H139.596Z" fill="#3F3D56"/>
<path d="M167.214 298.926C171.841 298.926 175.592 295.172 175.592 290.541C175.592 285.91 171.841 282.156 167.214 282.156C162.588 282.156 158.837 285.91 158.837 290.541C158.837 295.172 162.588 298.926 167.214 298.926Z" fill="#3F3D56"/>
<path d="M272.11 184.562L224.052 136.083H201.364V135.321H224.37L224.482 135.434L272.652 184.026L272.11 184.562Z" fill="#3F3D56"/>
<path d="M384.986 183.038L433.044 134.559H455.733V133.796H432.726L432.614 133.909L384.444 182.502L384.986 183.038Z" fill="#3F3D56"/>
<path d="M175.47 112.182H119.874V123.188H175.47V112.182Z" fill="#D0CDE1"/>
<path d="M175.47 129.07H119.874V140.076H175.47V129.07Z" fill="#D0CDE1"/>
<path d="M175.47 145.958H119.874V156.964H175.47V145.958Z" fill="#D0CDE1"/>
<path opacity="0.15" d="M142.873 112.182H119.874V123.188H142.873V112.182Z" fill="black"/>
<path opacity="0.15" d="M127.32 129.07H119.874V140.076H127.32V129.07Z" fill="black"/>
<path opacity="0.15" d="M156.938 145.958H119.874V156.964H156.938V145.958Z" fill="black"/>
<path d="M539.126 114.655H483.445V119.621H539.126V114.655Z" fill="#D0CDE1"/>
<path d="M473.613 114.012H462.587V125.048H473.613V114.012Z" fill="#6C63FF"/>
<path d="M473.613 130.565H462.587V141.601H473.613V130.565Z" fill="#6C63FF"/>
<path d="M473.613 147.118H462.587V158.154H473.613V147.118Z" fill="#6C63FF"/>
<path d="M476.659 122.761H464.872V110.963H476.659V122.761ZM465.633 121.999H475.897V111.725H465.633V121.999Z" fill="#3F3D56"/>
<path d="M539.126 131.208H483.445V136.174H539.126V131.208Z" fill="#D0CDE1"/>
<path d="M476.659 139.314H464.872V127.516H476.659V139.314ZM465.633 138.552H475.897V128.279H465.633V138.552Z" fill="#3F3D56"/>
<path d="M539.126 147.761H483.445V152.727H539.126V147.761Z" fill="#D0CDE1"/>
<path d="M476.659 155.867H464.872V144.069H476.659V155.867ZM465.633 155.105H475.897V144.832H465.633V155.105Z" fill="#3F3D56"/>
<path d="M191.844 123.887C195.209 123.887 197.936 121.157 197.936 117.789C197.936 114.422 195.209 111.691 191.844 111.691C188.479 111.691 185.751 114.422 185.751 117.789C185.751 121.157 188.479 123.887 191.844 123.887Z" fill="#6C63FF"/>
<path d="M191.844 142.181C195.209 142.181 197.936 139.451 197.936 136.083C197.936 132.715 195.209 129.985 191.844 129.985C188.479 129.985 185.751 132.715 185.751 136.083C185.751 139.451 188.479 142.181 191.844 142.181Z" fill="#6C63FF"/>
<path d="M191.844 158.569C195.209 158.569 197.936 155.839 197.936 152.471C197.936 149.103 195.209 146.373 191.844 146.373C188.479 146.373 185.751 149.103 185.751 152.471C185.751 155.839 188.479 158.569 191.844 158.569Z" fill="#6C63FF"/>
<path d="M188.797 122.744C187.517 122.744 186.266 122.364 185.201 121.652C184.136 120.94 183.307 119.928 182.817 118.744C182.327 117.56 182.199 116.258 182.448 115.001C182.698 113.744 183.315 112.59 184.22 111.683C185.125 110.777 186.279 110.16 187.535 109.91C188.79 109.66 190.092 109.789 191.275 110.279C192.458 110.769 193.469 111.6 194.18 112.665C194.891 113.731 195.271 114.983 195.271 116.265C195.269 117.983 194.586 119.629 193.373 120.844C192.159 122.059 190.514 122.742 188.797 122.744V122.744ZM188.797 110.548C187.668 110.548 186.563 110.883 185.624 111.511C184.685 112.14 183.953 113.032 183.52 114.077C183.088 115.122 182.975 116.271 183.195 117.38C183.416 118.489 183.96 119.508 184.759 120.307C185.557 121.107 186.575 121.651 187.683 121.872C188.791 122.092 189.94 121.979 190.983 121.546C192.027 121.114 192.919 120.381 193.547 119.441C194.174 118.501 194.509 117.395 194.509 116.265C194.508 114.749 193.905 113.296 192.834 112.224C191.764 111.153 190.312 110.55 188.797 110.548V110.548Z" fill="#3F3D56"/>
<path d="M188.797 141.037C187.517 141.037 186.266 140.657 185.201 139.946C184.136 139.234 183.307 138.222 182.817 137.038C182.327 135.854 182.199 134.551 182.448 133.294C182.698 132.038 183.315 130.883 184.22 129.977C185.125 129.071 186.279 128.454 187.535 128.204C188.79 127.954 190.092 128.082 191.275 128.573C192.458 129.063 193.469 129.893 194.18 130.959C194.891 132.024 195.271 133.277 195.271 134.558C195.269 136.276 194.586 137.923 193.373 139.138C192.159 140.352 190.514 141.036 188.797 141.037V141.037ZM188.797 128.842C187.668 128.842 186.563 129.177 185.624 129.805C184.685 130.433 183.953 131.326 183.52 132.371C183.088 133.415 182.975 134.565 183.195 135.674C183.416 136.783 183.96 137.801 184.759 138.601C185.557 139.4 186.575 139.945 187.683 140.165C188.791 140.386 189.94 140.273 190.983 139.84C192.027 139.407 192.919 138.675 193.547 137.735C194.174 136.794 194.509 135.689 194.509 134.558C194.508 133.043 193.905 131.59 192.834 130.518C191.764 129.446 190.312 128.843 188.797 128.842Z" fill="#3F3D56"/>
<path d="M188.797 157.425C187.517 157.425 186.266 157.045 185.201 156.334C184.136 155.622 183.307 154.61 182.817 153.426C182.327 152.242 182.199 150.939 182.448 149.682C182.698 148.426 183.315 147.271 184.22 146.365C185.125 145.459 186.279 144.842 187.535 144.592C188.79 144.342 190.092 144.47 191.275 144.961C192.458 145.451 193.469 146.281 194.18 147.347C194.891 148.412 195.271 149.665 195.271 150.946C195.269 152.664 194.586 154.311 193.373 155.526C192.159 156.74 190.514 157.424 188.797 157.425V157.425ZM188.797 145.23C187.668 145.23 186.563 145.565 185.624 146.193C184.685 146.821 183.953 147.714 183.52 148.759C183.088 149.803 182.975 150.953 183.195 152.062C183.416 153.171 183.96 154.189 184.759 154.989C185.557 155.788 186.575 156.333 187.683 156.553C188.791 156.774 189.94 156.661 190.983 156.228C192.027 155.795 192.919 155.063 193.547 154.123C194.174 153.182 194.509 152.077 194.509 150.946C194.508 149.431 193.905 147.978 192.834 146.906C191.764 145.834 190.312 145.231 188.797 145.23V145.23Z" fill="#3F3D56"/>
<path d="M496.477 313.303H495.716V307.586C495.716 307.283 495.836 306.992 496.051 306.778C496.265 306.563 496.555 306.443 496.858 306.443H498.762C498.863 306.442 498.96 306.402 499.031 306.331C499.103 306.259 499.143 306.162 499.143 306.061V302.25C499.143 302.149 499.103 302.052 499.031 301.981C498.96 301.909 498.863 301.869 498.762 301.869H496.858C496.555 301.869 496.265 301.748 496.051 301.534C495.836 301.32 495.716 301.029 495.716 300.726V298.82C495.716 298.719 495.675 298.622 495.604 298.551C495.533 298.479 495.436 298.439 495.335 298.439H491.908C491.605 298.439 491.315 298.318 491.1 298.104C490.886 297.889 490.766 297.599 490.765 297.296V296.915C490.765 296.814 490.725 296.717 490.654 296.645C490.582 296.574 490.486 296.534 490.385 296.533H476.676C476.575 296.534 476.478 296.574 476.407 296.645C476.335 296.717 476.295 296.814 476.295 296.915V297.296C476.295 297.599 476.174 297.889 475.96 298.104C475.746 298.318 475.456 298.439 475.153 298.439H471.726C471.625 298.439 471.528 298.479 471.457 298.551C471.385 298.622 471.345 298.719 471.345 298.82V300.726C471.345 301.029 471.224 301.32 471.01 301.534C470.796 301.748 470.505 301.869 470.203 301.869H468.299C468.198 301.869 468.101 301.909 468.029 301.981C467.958 302.052 467.918 302.149 467.918 302.25V306.061C467.918 306.162 467.958 306.259 468.029 306.331C468.101 306.402 468.198 306.442 468.299 306.443H470.583C470.886 306.443 471.177 306.563 471.391 306.778C471.605 306.992 471.725 307.283 471.726 307.586V313.303H470.964V307.586C470.964 307.485 470.924 307.388 470.853 307.316C470.781 307.245 470.684 307.205 470.583 307.205H468.299C467.996 307.204 467.705 307.084 467.491 306.87C467.277 306.655 467.157 306.365 467.156 306.061V302.25C467.157 301.947 467.277 301.656 467.491 301.442C467.705 301.228 467.996 301.107 468.299 301.107H470.203C470.304 301.107 470.4 301.067 470.472 300.995C470.543 300.924 470.583 300.827 470.583 300.726V298.82C470.584 298.517 470.704 298.226 470.918 298.012C471.133 297.798 471.423 297.677 471.726 297.677H475.153C475.254 297.677 475.351 297.637 475.422 297.565C475.493 297.494 475.534 297.397 475.534 297.296V296.915C475.534 296.611 475.654 296.321 475.869 296.106C476.083 295.892 476.373 295.772 476.676 295.771H490.385C490.687 295.772 490.978 295.892 491.192 296.106C491.406 296.321 491.527 296.611 491.527 296.915V297.296C491.527 297.397 491.567 297.494 491.639 297.565C491.71 297.637 491.807 297.677 491.908 297.677H495.335C495.638 297.677 495.928 297.798 496.142 298.012C496.356 298.226 496.477 298.517 496.477 298.82V300.726C496.477 300.827 496.517 300.924 496.589 300.995C496.66 301.067 496.757 301.107 496.858 301.107H498.762C499.065 301.107 499.355 301.228 499.569 301.442C499.784 301.656 499.904 301.947 499.904 302.25V306.061C499.904 306.365 499.784 306.655 499.569 306.87C499.355 307.084 499.065 307.204 498.762 307.205H496.858C496.757 307.205 496.66 307.245 496.589 307.316C496.517 307.388 496.477 307.485 496.477 307.586V313.303Z" fill="#3F3D56"/>
<path d="M495.335 339.981H472.107C471.804 339.981 471.513 339.86 471.299 339.646C471.085 339.431 470.965 339.141 470.964 338.838V322.449H471.726V338.838C471.726 338.939 471.766 339.035 471.837 339.107C471.909 339.178 472.006 339.219 472.107 339.219H495.335C495.436 339.219 495.533 339.178 495.604 339.107C495.675 339.035 495.716 338.939 495.716 338.838V322.449H496.477V338.838C496.477 339.141 496.356 339.431 496.142 339.646C495.928 339.86 495.638 339.981 495.335 339.981V339.981Z" fill="#3F3D56"/>
<path d="M500.285 315.97H471.726C471.305 315.97 470.964 316.312 470.964 316.733V324.355C470.964 324.776 471.305 325.117 471.726 325.117H500.285C500.706 325.117 501.047 324.776 501.047 324.355V316.733C501.047 316.312 500.706 315.97 500.285 315.97Z" fill="#6C63FF"/>
<path d="M497.81 322.831H469.251C468.948 322.83 468.657 322.71 468.443 322.495C468.229 322.281 468.109 321.99 468.108 321.687V314.065C468.109 313.762 468.229 313.471 468.443 313.257C468.657 313.042 468.948 312.922 469.251 312.922H497.81C498.113 312.922 498.403 313.042 498.617 313.257C498.832 313.471 498.952 313.762 498.952 314.065V321.687C498.952 321.99 498.832 322.281 498.617 322.495C498.403 322.71 498.113 322.83 497.81 322.831ZM469.251 313.684C469.15 313.684 469.053 313.724 468.981 313.796C468.91 313.867 468.87 313.964 468.87 314.065V321.687C468.87 321.788 468.91 321.885 468.981 321.957C469.053 322.028 469.15 322.068 469.251 322.068H497.81C497.911 322.068 498.008 322.028 498.079 321.957C498.151 321.885 498.191 321.788 498.191 321.687V314.065C498.191 313.964 498.151 313.867 498.079 313.796C498.008 313.724 497.911 313.684 497.81 313.684H469.251Z" fill="#3F3D56"/>
<path d="M482.769 293.103C481.756 286.278 481.489 279.363 481.971 272.481L482.769 261.089C478.374 269.842 479.367 281.362 482.769 293.103V293.103Z" fill="#D0CDE1"/>
<path d="M486.196 295.009C485.709 290.936 485.58 286.829 485.812 282.734L486.196 275.953C484.081 281.163 484.559 288.02 486.196 295.009Z" fill="#D0CDE1"/>
</g>
<defs>
<clipPath id="clip0">
<rect width="419.252" height="253.844" fill="white" transform="translate(119.874 86.1371)"/>
</clipPath>
</defs>
</svg>
